<!--?xml version="1.0" encoding="utf-8"?-->
<!-- Svg Vector Icons : http://www.onlinewebfonts.com/icon -->

<svg version="1.1" xmlns="http://www.w3.org/2000/svg" xmlns:xlink="http://www.w3.org/1999/xlink" x="0px" y="0px" viewBox="0 0 256 256" enable-background="new 0 0 256 256" xml:space="preserve">
<metadata> Svg Vector Icons : http://www.onlinewebfonts.com/icon </metadata>
<g><g><g><g><path fill="#10637d" data-title="Layer 0" xs="0" d="M226.7,199.5L164.1,128l62.6-71.5c10.6-10.6,10.6-27.9,0-38.5c-10.6-10.6-27.9-10.6-38.5,0L128,86.7L67.9,18C57.2,7.3,40,7.3,29.3,18c-10.6,10.6-10.6,27.9,0,38.5L91.9,128l-62.6,71.5c-10.6,10.6-10.6,27.9,0,38.5c10.6,10.6,27.9,10.6,38.5,0l60.2-68.8l60.2,68.8c10.6,10.6,27.9,10.6,38.5,0C237.3,227.4,237.3,210.1,226.7,199.5z"/></g></g><g></g><g></g><g></g><g></g><g></g><g></g><g></g><g></g><g></g><g></g><g></g><g></g><g></g><g></g><g></g></g></g>
</svg>